# xmcd
# Track frame offsets:
# 150
# 14364
# 27456
# 41410
# 55280
# 71417
# 84344
# 93347
# 109031
# 122060
#
# Disc length: 1890 seconds
# Revision: 0
# Processed by: cddbd v1.5.1PL2 Copyright (c) Steve Scherf et al.
# Submitted via: VisiTrax 2.10.0.248 - For more info visit www.synapsa.com
#
DISCID=7907600a
DTITLE=Waylon Jennings - Full Circle
DYEAR=1988
DGENRE=Country
TTITLE0=Trouble Man
TTITLE1=Grapes On The Vine
TTITLE2=Which Way Do I Go (Now That I'm Gone)
TTITLE3=Yoyos, Bozos, Bimbos And Heroes
TTITLE4=It Goes With The Territory
TTITLE5=How Much Is It Worth To Live In L.A.
TTITLE6=Hey Willie
TTITLE7=You Put The Soul In The Song
TTITLE8=G.I. Joe
TTITLE9=Woman I Hate It
EXTD=
EXTT0=
EXTT1=
EXTT2=
EXTT3=
EXTT4=
EXTT5=
EXTT6=
EXTT7=
EXTT8=
EXTT9=
PLAYORDER=
